<?xml version="1.0" standalone="no"?>
<!DOCTYPE svg PUBLIC "-//W3C//DTD SVG 20010904//EN"
 "http://www.w3.org/TR/2001/REC-SVG-20010904/DTD/svg10.dtd">
<svg version="1.0" xmlns="http://www.w3.org/2000/svg"
 width="1536.000000pt" height="1024.000000pt" viewBox="0 0 1536.000000 1024.000000"
 preserveAspectRatio="xMidYMid meet">

<g transform="translate(0.000000,1024.000000) scale(0.100000,-0.100000)"
fill="#000000" stroke="none">
<path d="M7649 8677 c-37 -29 -232 -178 -434 -332 -347 -265 -888 -678 -1077
-824 l-86 -66 236 -3 c153 -1 240 -6 249 -13 10 -9 13 -100 13 -468 l0 -457
38 -22 c21 -11 214 -138 430 -281 l392 -260 -3 -703 c-2 -387 -1 -827 1 -979
l4 -277 169 -162 c94 -89 174 -160 178 -158 5 2 111 101 235 222 l226 218 0
134 0 134 -95 0 -96 0 3 98 3 97 93 3 92 3 0 99 0 100 -79 0 c-115 0 -111 -4
-111 106 l0 93 93 3 92 3 3 113 3 113 -96 61 -95 61 0 308 0 308 408 275 409
275 6 308 c4 169 7 378 7 464 0 107 4 159 12 167 9 9 86 12 283 12 l270 1 -30
25 c-16 13 -123 95 -237 181 l-208 157 0 313 0 313 -195 0 -195 0 0 -160 c0
-88 -3 -160 -7 -160 -5 0 -191 137 -416 305 -224 168 -411 305 -415 305 -4 -1
-37 -24 -73 -53z m347 -449 c122 -89 393 -291 603 -448 l382 -285 -63 -6 c-35
-4 -109 -7 -165 -8 -90 -1 -104 -3 -113 -20 -6 -13 -10 -165 -10 -423 l-1
-403 -454 -304 -453 -304 -39 24 c-37 23 -255 165 -690 452 l-223 146 -2 413
-3 413 -132 6 c-73 3 -135 7 -137 10 -4 4 227 181 967 741 l260 197 26 -18
c14 -11 125 -93 247 -183z m-225 -3186 l-4 -893 42 -43 41 -42 -44 -43 -45
-44 -60 54 -61 54 0 928 0 928 68 -3 67 -3 -4 -893z"/>
<path d="M7370 7466 l0 -143 31 -7 c40 -8 106 -8 192 1 l67 6 0 143 0 144
-145 0 -145 0 0 -144z"/>
<path d="M7761 7466 l1 -144 30 -6 c39 -8 119 -8 197 0 l61 7 0 143 0 144
-145 0 -146 0 2 -144z"/>
<path d="M7370 7065 l0 -145 145 0 146 0 -3 143 -3 142 -142 3 -143 3 0 -146z"/>
<path d="M7767 7203 c-2 -5 -5 -70 -6 -145 l-2 -138 145 0 146 0 0 145 0 145
-139 0 c-77 0 -142 -3 -144 -7z"/>
<path d="M5980 3294 c-45 -16 -585 -20 -643 -3 -22 6 -40 9 -42 7 -2 -2 -6
-51 -10 -110 -5 -77 -4 -108 4 -108 6 0 11 8 11 18 1 32 55 116 86 134 40 23
152 35 182 19 22 -12 22 -13 22 -361 l0 -349 -22 -15 c-12 -9 -39 -16 -60 -16
-21 0 -38 -3 -38 -7 0 -5 81 -8 180 -8 175 0 228 7 133 18 -29 3 -52 12 -60
23 -10 14 -13 94 -13 361 0 397 -8 370 106 360 104 -10 154 -48 175 -134 6
-24 15 -43 20 -43 5 0 9 52 9 115 0 63 -1 114 -2 114 -2 -1 -19 -7 -38 -15z"/>
<path d="M7895 3295 c-38 -18 -588 -21 -648 -4 -22 6 -40 9 -42 7 -6 -8 -14
-218 -7 -218 4 0 13 19 20 42 17 54 46 95 81 113 36 18 121 29 165 21 l36 -7
0 -354 0 -354 -22 -15 c-12 -9 -40 -16 -62 -16 -22 0 -36 -3 -32 -7 9 -10 356
-11 356 -1 0 4 -18 8 -40 8 -27 0 -47 7 -60 20 -19 19 -20 33 -20 365 0 399
-8 372 106 362 104 -10 154 -48 175 -134 6 -24 15 -43 20 -43 5 0 9 52 9 115
0 63 -1 115 -2 114 -2 0 -16 -7 -33 -14z"/>
<path d="M4672 3281 c-95 -33 -142 -95 -142 -186 0 -95 31 -131 206 -239 103
-63 148 -107 165 -165 24 -80 -17 -161 -93 -181 -104 -28 -216 49 -265 183
-25 70 -37 59 -29 -30 3 -42 6 -88 6 -103 0 -22 7 -30 38 -43 123 -54 281 -47
365 17 61 46 87 98 87 172 0 89 -29 125 -188 228 -138 90 -178 128 -188 181
-15 82 25 145 100 159 85 16 165 -37 206 -138 13 -31 27 -56 30 -56 8 0 0 173
-9 182 -13 14 -127 38 -181 38 -30 -1 -79 -9 -108 -19z"/>
<path d="M6511 3118 c-209 -457 -247 -533 -282 -570 -24 -25 -45 -38 -62 -38
-15 0 -27 -3 -27 -7 0 -5 68 -8 150 -8 147 0 190 7 109 18 -92 12 -99 61 -31
212 l41 90 154 3 154 2 56 -116 c32 -63 60 -127 63 -140 8 -33 -12 -54 -52
-54 -19 0 -34 -3 -34 -7 0 -5 72 -8 160 -8 88 0 160 3 160 8 0 4 -8 7 -19 7
-46 0 -73 44 -257 414 -102 204 -188 372 -192 374 -4 1 -45 -80 -91 -180z
m120 -120 l69 -143 -131 -3 c-73 -1 -134 -1 -136 2 -2 2 19 55 47 117 29 63
57 126 63 142 6 15 13 27 15 27 1 0 34 -64 73 -142z"/>
<path d="M11390 3281 c-69 -4 -110 -8 -92 -9 17 -1 41 -11 52 -22 19 -19 20
-33 20 -358 0 -379 -1 -382 -66 -382 -19 0 -34 -3 -34 -7 0 -15 422 -9 468 7
45 14 124 77 144 114 34 63 23 173 -23 222 -29 31 -79 58 -138 74 l-44 12 50
28 c60 35 89 68 103 121 15 55 3 105 -35 143 -57 57 -149 70 -405 57z m267
-37 c81 -52 75 -226 -10 -288 -18 -14 -48 -21 -92 -24 l-65 -4 0 155 c0 161 2
169 45 180 30 8 97 -2 122 -19z m26 -368 c60 -29 89 -82 94 -169 3 -56 0 -80
-14 -107 -22 -43 -69 -75 -122 -84 -46 -7 -132 9 -143 27 -4 7 -8 90 -8 186
l0 173 78 -4 c48 -2 91 -11 115 -22z"/>
<path d="M3647 3270 c66 -15 63 2 63 -381 0 -382 1 -379 -61 -379 -16 0 -29
-3 -29 -7 0 -5 130 -8 289 -8 l290 0 6 81 c10 118 5 129 -28 61 -22 -44 -39
-63 -75 -85 -43 -24 -56 -27 -145 -27 -131 0 -127 -7 -127 202 l0 163 93 0
c112 0 157 -18 172 -67 17 -59 25 -35 25 77 0 105 -11 143 -23 80 -10 -46 -49
-60 -167 -60 l-100 0 0 146 c0 81 5 154 10 165 9 17 22 19 106 19 124 0 162
-18 198 -92 l25 -53 1 88 0 87 -277 -1 c-154 -1 -264 -4 -246 -9z"/>
<path d="M8212 3271 c71 -14 68 4 68 -377 0 -331 -1 -345 -20 -364 -11 -11
-33 -20 -50 -20 -16 0 -30 -4 -30 -9 0 -4 132 -8 294 -7 l294 1 6 65 c3 36 6
81 5 100 l0 35 -24 -48 c-32 -64 -41 -74 -89 -100 -33 -17 -59 -21 -137 -22
-67 0 -101 4 -112 14 -15 12 -17 37 -17 182 l0 169 93 0 c112 0 157 -18 172
-67 17 -59 25 -35 25 77 0 106 -11 143 -24 80 -8 -45 -53 -60 -171 -60 l-95 0
0 154 c0 187 -4 182 121 180 116 -2 154 -21 189 -92 14 -29 27 -52 30 -52 3 0
4 38 2 85 l-3 85 -282 -1 c-155 -1 -265 -5 -245 -8z"/>
<path d="M9072 3271 c71 -14 68 5 68 -382 0 -386 1 -379 -66 -379 -19 0 -34
-3 -34 -8 0 -4 74 -7 165 -7 91 0 165 3 165 8 0 4 -15 7 -33 7 -18 0 -43 7
-55 16 -21 15 -22 21 -22 190 l0 174 230 0 230 0 0 -174 c0 -169 -1 -175 -22
-190 -12 -9 -38 -16 -57 -16 -19 0 -31 -3 -27 -7 10 -10 326 -10 326 0 0 4
-15 7 -33 7 -67 0 -67 -2 -67 376 0 256 3 344 13 357 6 10 32 21 57 26 33 6
-2 9 -130 9 -124 0 -162 -3 -131 -9 72 -14 71 -13 71 -190 l0 -159 -230 0
-230 0 0 159 c0 176 1 178 68 192 21 4 -33 7 -128 7 -95 0 -149 -3 -128 -7z"/>
<path d="M10216 3269 c29 -7 44 -17 53 -35 7 -17 11 -110 11 -282 0 -249 1
-259 24 -308 52 -111 176 -171 332 -161 102 6 176 38 228 99 60 70 66 103 66
365 0 285 5 305 84 324 18 4 -24 7 -104 7 -119 0 -130 -1 -96 -11 21 -7 48
-25 60 -40 20 -27 21 -40 21 -276 l0 -247 -30 -59 c-23 -46 -42 -66 -79 -90
-45 -27 -57 -30 -135 -30 -98 0 -146 19 -198 79 -54 61 -58 86 -58 368 0 285
-1 282 66 298 21 5 -26 8 -126 8 -121 0 -150 -2 -119 -9z"/>
<path d="M4852 2033 l3 -108 69 0 c47 0 71 4 74 13 3 9 -13 12 -57 12 l-61 0
0 95 c0 79 -3 95 -15 95 -13 0 -15 -16 -13 -107z"/>
<path d="M5101 2054 c4 -79 6 -87 32 -110 38 -32 90 -32 122 1 23 22 25 32 25
110 0 69 -3 85 -15 85 -12 0 -15 -16 -15 -83 0 -92 -8 -107 -55 -107 -51 0
-65 25 -65 113 0 64 -3 77 -16 77 -14 0 -16 -12 -13 -86z"/>
<path d="M5434 2088 l35 -51 -39 -56 c-25 -35 -35 -58 -28 -60 12 -4 39 23 69
69 l15 23 34 -46 c18 -26 39 -47 47 -47 19 0 17 4 -22 59 -19 26 -35 53 -35
58 0 6 16 31 35 57 31 40 33 46 17 46 -12 0 -30 -17 -46 -41 l-28 -41 -30 41
c-45 62 -66 53 -24 -11z"/>
<path d="M5690 2055 c0 -78 2 -88 25 -110 18 -19 35 -25 65 -25 30 0 47 6 65
25 23 22 25 32 25 110 0 69 -3 85 -15 85 -12 0 -15 -16 -15 -84 0 -93 -9 -109
-62 -109 -46 0 -58 24 -58 115 0 63 -3 78 -15 78 -12 0 -15 -16 -15 -85z"/>
<path d="M6000 2030 c0 -67 4 -110 10 -110 6 0 10 20 10 45 0 43 1 45 29 45
24 0 34 -8 55 -45 15 -25 33 -45 41 -45 20 0 19 4 -10 51 l-26 40 22 18 c26
21 28 64 4 91 -14 16 -31 20 -77 20 l-58 0 0 -110z m108 81 c8 -5 12 -21 10
-37 -2 -23 -9 -30 -38 -36 -19 -4 -41 -5 -47 -3 -13 5 -18 67 -6 78 9 10 65 8
81 -2z"/>
<path d="M6271 2118 c7 -13 25 -42 40 -65 22 -31 29 -53 29 -88 0 -64 24 -55
28 10 2 34 13 63 38 102 38 60 39 63 22 63 -7 0 -26 -20 -41 -45 -16 -25 -32
-45 -35 -45 -4 0 -20 20 -35 45 -16 25 -35 45 -43 45 -12 0 -13 -4 -3 -22z"/>
<path d="M6710 2030 l0 -110 70 0 c56 0 70 3 70 15 0 12 -13 15 -55 15 l-55 0
0 95 c0 78 -3 95 -15 95 -12 0 -15 -19 -15 -110z"/>
<path d="M6970 2030 c0 -67 4 -110 10 -110 6 0 10 43 10 110 0 67 -4 110 -10
110 -6 0 -10 -43 -10 -110z"/>
<path d="M7110 2135 c0 -2 18 -52 41 -110 29 -76 45 -105 56 -103 9 2 33 48
58 111 35 87 39 107 26 107 -11 0 -25 -25 -45 -78 -16 -42 -32 -81 -37 -85 -4
-5 -21 30 -39 77 -19 50 -38 86 -46 86 -8 0 -14 -2 -14 -5z"/>
<path d="M7420 2030 c0 -67 4 -110 10 -110 6 0 10 43 10 110 0 67 -4 110 -10
110 -6 0 -10 -43 -10 -110z"/>
<path d="M7580 2030 c0 -131 18 -150 22 -22 l3 87 64 -88 c35 -48 69 -86 75
-84 7 2 12 44 14 110 2 90 0 107 -12 107 -12 0 -16 -17 -18 -82 l-3 -82 -59
82 c-33 45 -65 82 -73 82 -10 0 -13 -25 -13 -110z"/>
<path d="M7909 2111 c-24 -24 -29 -38 -29 -76 0 -79 51 -124 126 -112 52 9 74
32 74 79 l0 38 -45 0 c-33 0 -45 -4 -45 -15 0 -10 10 -15 31 -15 26 0 30 -3
27 -22 -4 -33 -47 -51 -87 -37 -38 14 -51 35 -51 88 0 31 6 44 26 60 32 25 71
27 95 5 25 -23 45 -8 23 17 -12 14 -31 19 -66 19 -41 0 -54 -5 -79 -29z"/>
<path d="M8362 2033 c2 -74 7 -108 16 -111 8 -2 12 10 12 42 0 44 1 46 29 46
24 0 34 -8 55 -45 15 -25 33 -45 41 -45 20 0 19 4 -12 51 l-26 40 21 15 c15
10 22 26 22 48 0 49 -25 66 -99 66 l-62 0 3 -107z m118 73 c6 -8 10 -25 8 -38
-3 -20 -10 -23 -50 -26 l-48 -3 0 34 c0 18 3 37 7 40 12 13 70 7 83 -7z"/>
<path d="M8650 2030 l0 -110 75 0 c60 0 75 3 75 15 0 12 -13 15 -60 15 l-60 0
0 35 0 35 50 0 c38 0 50 4 50 15 0 11 -12 15 -50 15 l-50 0 0 35 0 35 60 0
c33 0 60 4 60 10 0 6 -32 10 -75 10 l-75 0 0 -110z"/>
<path d="M8920 2030 l0 -110 45 0 c68 0 113 22 131 66 21 50 11 96 -27 128
-25 22 -41 26 -90 26 l-59 0 0 -110z m132 60 c26 -27 30 -36 25 -68 -8 -47
-38 -72 -87 -72 l-38 0 -7 75 c-3 41 -4 79 0 85 3 5 22 10 41 10 26 0 44 -8
66 -30z"/>
<path d="M9222 2033 l3 -108 73 -3 c59 -2 72 0 72 13 0 12 -13 15 -60 15 l-60
0 0 34 c0 35 0 35 52 38 74 4 77 28 4 28 l-56 0 0 35 0 35 60 0 c33 0 60 4 60
10 0 6 -32 10 -75 10 l-76 0 3 -107z"/>
<path d="M9490 2030 c0 -91 3 -110 15 -110 11 0 15 12 15 50 l0 50 50 0 c28 0
50 5 50 10 0 6 -22 10 -50 10 l-50 0 0 40 0 40 60 0 c33 0 60 4 60 10 0 6 -32
10 -75 10 l-75 0 0 -110z"/>
<path d="M9750 2030 c0 -91 3 -110 15 -110 12 0 15 19 15 110 0 91 -3 110 -15
110 -12 0 -15 -19 -15 -110z"/>
<path d="M9910 2030 c0 -90 3 -110 15 -110 11 0 15 19 17 86 l3 85 62 -85 c34
-47 67 -86 73 -86 6 0 10 42 10 110 0 67 -4 110 -10 110 -9 0 -15 -54 -13
-128 1 -42 -11 -33 -73 59 -30 43 -54 69 -66 69 -16 0 -18 -10 -18 -110z"/>
<path d="M10220 2030 l0 -110 75 0 c60 0 75 3 75 15 0 12 -13 15 -60 15 l-60
0 0 35 0 35 50 0 c38 0 50 4 50 15 0 11 -12 15 -50 15 l-50 0 0 35 0 35 60 0
c33 0 60 4 60 10 0 6 -32 10 -75 10 l-75 0 0 -110z"/>
<path d="M10482 2033 l3 -108 34 -3 c97 -10 151 30 151 110 0 41 -5 54 -29 79
-27 26 -36 29 -95 29 l-66 0 2 -107z m132 65 c14 -13 26 -32 27 -43 6 -74 -19
-105 -86 -105 l-45 0 0 78 c0 43 3 82 7 85 15 16 73 6 97 -15z"/>
<path d="M3620 2030 c0 -7 172 -10 495 -10 323 0 495 3 495 10 0 7 -172 10
-495 10 -323 0 -495 -3 -495 -10z"/>
<path d="M10900 2030 c0 -7 173 -10 500 -10 327 0 500 3 500 10 0 7 -173 10
-500 10 -327 0 -500 -3 -500 -10z"/>
</g>
</svg>
